<svg width="40" height="40" viewBox="0 0 40 40" fill="none" xmlns="http://www.w3.org/2000/svg">
<g transform="scale(.7)">
<rect x="12" y="4" width="4" height="26" fill="#F7F7F7"/>
<rect x="8" y="18" width="4" height="10" fill="#F7F7F7"/>
<rect x="4" y="16" width="4" height="8" fill="#F7F7F7"/>
<rect x="14" y="14" width="20" height="18" fill="#F7F7F7"/>
<rect x="18" y="12" width="10" height="2" fill="#F7F7F7"/>
<rect width="18" height="4" transform="matrix(1 0 0 -1 14 36)" fill="#F7F7F7"/>
<rect x="14" y="36" width="2" height="2" fill="black"/>
<rect x="14" y="34" width="2" height="2" fill="black"/>
<rect x="12" y="32" width="2" height="2" fill="black"/>
<rect x="12" y="30" width="2" height="2" fill="black"/>
<rect x="10" y="28" width="2" height="2" fill="black"/>
<rect x="8" y="26" width="2" height="2" fill="black"/>
<rect x="6" y="24" width="2" height="2" fill="black"/>
<rect x="4" y="22" width="2" height="2" fill="black"/>
<rect x="4" y="20" width="2" height="2" fill="black"/>
<rect x="2" y="16" width="2" height="2" fill="black"/>
<rect x="2" y="18" width="2" height="2" fill="black"/>
<rect x="4" y="14" width="2" height="2" fill="black"/>
<rect x="6" y="14" width="2" height="2" fill="black"/>
<rect x="8" y="16" width="2" height="2" fill="black"/>
<rect x="10" y="18" width="2" height="2" fill="black"/>
<rect x="16" y="14" width="2" height="2" fill="black"/>
<rect x="16" y="16" width="2" height="2" fill="black"/>
<rect x="18" y="22" width="2" height="8" fill="black"/>
<rect x="23" y="22" width="2" height="8" fill="black"/>
<rect x="28" y="22" width="2" height="8" fill="black"/>
<rect x="18" y="10" width="2" height="2" fill="black"/>
<rect x="20" y="10" width="2" height="2" fill="black"/>
<rect x="22" y="10" width="2" height="2" fill="black"/>
<rect x="24" y="10" width="2" height="2" fill="black"/>
<rect x="26" y="10" width="2" height="2" fill="black"/>
<rect x="28" y="10" width="2" height="2" fill="black"/>
<rect x="28" y="12" width="2" height="2" fill="black"/>
<rect x="30" y="12" width="2" height="2" fill="black"/>
<rect x="32" y="12" width="2" height="2" fill="black"/>
<rect x="28" y="14" width="2" height="2" fill="black"/>
<rect x="28" y="16" width="2" height="2" fill="black"/>
<rect x="22" y="12" width="2" height="2" fill="black"/>
<rect x="22" y="14" width="2" height="2" fill="black"/>
<rect x="22" y="16" width="2" height="2" fill="black"/>
<rect x="10" y="14" width="2" height="2" fill="black"/>
<rect x="10" y="16" width="2" height="2" fill="black"/>
<rect x="10" y="12" width="2" height="2" fill="black"/>
<rect x="10" y="10" width="2" height="2" fill="black"/>
<rect x="10" y="8" width="2" height="2" fill="black"/>
<rect x="10" y="6" width="2" height="2" fill="black"/>
<rect x="10" y="4" width="2" height="2" fill="black"/>
<rect x="12" y="2" width="2" height="2" fill="black"/>
<rect x="14" y="2" width="2" height="2" fill="black"/>
<rect x="16" y="10" width="2" height="4" fill="black"/>
<rect x="16" y="4" width="2" height="6" fill="black"/>
<rect x="16" y="36" width="2" height="2" fill="black"/>
<rect x="18" y="36" width="2" height="2" fill="black"/>
<rect x="20" y="36" width="2" height="2" fill="black"/>
<rect x="22" y="34" width="2" height="2" fill="black"/>
<rect x="24" y="34" width="2" height="2" fill="black"/>
<rect x="26" y="36" width="2" height="2" fill="black"/>
<rect x="28" y="36" width="2" height="2" fill="black"/>
<rect x="30" y="36" width="2" height="2" fill="black"/>
<rect x="30" y="34" width="2" height="2" fill="black"/>
<rect x="30" y="32" width="2" height="2" fill="black"/>
<rect x="32" y="28" width="2" height="4" fill="black"/>
<rect x="34" y="20" width="2" height="8" fill="black"/>
<rect x="34" y="14" width="2" height="6" fill="black"/>
<rect x="34" y="14" width="2" height="6" fill="black"/>
</g>
</svg>