<svg version="1.2" xmlns="http://www.w3.org/2000/svg" viewBox="0 0 1200 1200" width="1200" height="1200">
	<style>
		.s0 { fill: #000000 } 
	</style>
	<g id="_Artboards_">
	</g>
	<g id="Background">
	</g>
	<g id="Graphic Element">
		<g id="&lt;Group&gt;">
			<path id="&lt;Compound Path&gt;" fill-rule="evenodd" class="s0" d="m766.26 460.8c-22.02 22.71-46.67 42.54-71.82 61.64-18.17 13.81-36.69 27.34-54.75 41.41 6.74 10.51 13.61 20.94 20.71 31.22 22.2 32.09 42.75 66.44 72.78 92.01 6.32 5.39-2.27 16.48-8.89 11.52-19.08-14.3-38.88-27.61-59.27-39.96-26.82-16.26-54.51-30.85-82.77-44.29-5.51 5.7-10.9 11.54-16.02 17.65-6.59 7.85-12.43 16.18-17.83 24.81-3.08 43.74-9.95 86.98-25.25 128.85-3.22 8.81-17.38 4.98-14.14-3.9 9.36-25.61 15.86-52.13 20.02-79.07 0.78-5.07 1.45-10.15 2.08-15.23-14.91 28.33-28.79 57.31-50.85 80.94-6.45 6.91-16.8-3.48-10.37-10.37 20.82-22.3 34.1-50.25 48.15-77 5.19-9.89 10.6-19.54 16.4-28.9 1.29-19.42 1.82-38.87 1.99-58.35-32.75-14.04-65.99-27-99.33-39.45-7.35-2.75-6.8-14.72 1.95-14.41 26.64 0.96 53.34 1.61 79.97-0.03q8.69-0.52 17.29-1.46c-0.25-40.44-0.26-80.87 3.81-121.08 0.67-6.69 9.92-10.66 13.66-3.7 12.07 22.42 24.13 44.84 36.52 67.09 7.34 13.18 14.88 26.25 22.53 39.25 12.53-5 24.71-11 36.45-18.19 34.72-21.28 69.62-50.23 111.8-53.51 6.59-0.52 9.32 8.25 5.18 12.51zm-215.51 75.73c16.38-2.5 32.45-6.23 48.06-11.43-15.91-27.18-31.1-54.77-46.06-82.48-1.21 18.82-1.78 37.68-1.95 56.55-0.11 12.42-0.1 24.88-0.05 37.36zm55.8 1.78c-8.8 3.04-17.74 5.64-26.77 7.76-9.59 2.25-19.27 3.91-28.98 5.26q0.06 16.35-0.01 32.7 14.18 6.19 28.21 12.71c13.04-12.81 26.98-24.7 41.25-36.13-4.25-6.81-8.51-13.62-12.64-20.49q-0.53-0.91-1.06-1.81zm-98.22 27.9q14.13 5.71 28.16 11.67 0-12.41-0.09-24.82c-18.34 1.84-36.8 2.48-55.28 2.43 9.09 3.53 18.17 7.07 27.21 10.72zm59.89 41.7c-5.85-2.69-11.7-5.4-17.59-8q-0.19 14.78-0.74 29.52c4.36-5.79 8.96-11.43 13.9-16.89 1.43-1.59 2.97-3.07 4.43-4.63zm59.87-34.9c-12.04 9.7-23.73 19.79-34.88 30.46 30.48 14.67 60.27 30.7 88.92 48.61q-2-2.71-3.98-5.44c-17.32-24.04-34.06-48.62-50.06-73.63zm109.34-104.79c-14.1 4.96-27.43 12.62-39.95 20.28-17.88 10.95-34.99 23.23-53.4 33.31-7.61 4.17-15.47 7.9-23.51 11.22 3.72 6.17 7.52 12.28 11.33 18.39 35.41-27.44 72.46-52.98 105.53-83.2z"/>
		</g>
	</g>
</svg>