<svg version="1.2" xmlns="http://www.w3.org/2000/svg" viewBox="0 0 1200 1200" width="1200" height="1200">
	<style>
		.s0 { fill: #000000 } 
	</style>
	<g id="_Artboards_">
	</g>
	<g id="Background">
	</g>
	<g id="Graphic Element">
		<g id="&lt;Group&gt;">
			<path id="&lt;Compound Path&gt;" fill-rule="evenodd" class="s0" d="m740.23 492.76c-21.42 16.05-46.51 26.35-72.2 33.36-7.54 2.06-15.14 3.83-22.77 5.43 2.8 14.26 5.33 28.56 6.6 42.92 1.88 21.21-0.12 42.66-1.56 63.83-0.74 10.95-1.49 21.97-1.79 32.98 17.8 28.81 29.52 61.02 24.39 94.77-0.74 4.85-7.64 6.01-10.69 2.82-16.73-17.5-23.35-40.86-25.6-64.44-0.92-9.7-1.13-19.44-0.96-29.18-12.79-20.29-28.33-38.79-44.83-56.15-17.16-18.06-36.07-34.08-53.98-51.34-5.92-5.7-11.62-11.65-17.2-17.71q-0.94 0.15-1.89 0.31c-46.75 7.83-94.97 20.98-129.03 55.96-5.76 5.91-14.8-3.15-9.05-9.05 18.95-19.46 42.49-33.11 67.82-42.51 20.08-7.46 40.87-12.36 61.94-16.07q-2.25-2.56-4.48-5.12c-15.79 3.89-32.59 4.45-49.22 3.08-8.16-0.67-8.21-13.46 0-12.79 13.26 1.09 26.77 1.17 39.87-1.13-25.08-29.2-50.04-58.45-83.5-78.64-6.42-3.88-2.01-13.13 4.93-11.69 25.22 5.2 50.64 9.05 76.25 11.7 27.03 2.79 54.15 4.58 81.22 6.89 13.06-21.34 26.62-42.15 44.77-59.8 3.8-3.7 11.23-1.18 10.92 4.52-1.13 20.65-0.13 41.14 2.2 61.52 35.89 4.74 72.59 10.7 106.31 23.84 5.36 2.09 6.1 8.26 1.53 11.69zm-151.65-40.51q15.41 1.43 30.77 3.32c-1.56-14.36-2.42-28.76-2.38-43.21-8.53 9.82-16.17 20.36-23.17 31.4q-2.65 4.19-5.22 8.49zm-79.08 66.99c1.01-0.34 2.03-0.62 3.03-1 24.6-9.2 39.79-30.79 52.9-52.36q0.8-1.32 1.6-2.64c-41.57-3.67-83.22-6.71-124.44-13.28 19.02 15.22 35.78 33.08 51.76 51.63 5.06 5.88 10.09 11.78 15.15 17.65zm14.95 16.99c23.93-3.64 48.09-6.15 71.88-9.43 11.24-1.56 22.61-3.25 33.95-5.3-2.42-12.16-4.88-24.31-6.89-36.5q-1.33-8.12-2.43-16.26c-13.19-1.6-26.42-2.96-39.66-4.2-10.08 17.12-20.5 34.24-35.16 47.59-8.44 7.68-17.85 13.24-27.84 17.18q3.05 3.48 6.15 6.92zm125.09 169.6c1.46 14.11 4.92 28.3 11.89 40.59-0.63-16.16-5.53-32.04-12.4-46.84 0.15 2.08 0.3 4.17 0.51 6.25zm-16.81-171.8c-32.28 5.92-65.12 8.96-97.63 13.64 6.88 7.2 13.96 14.21 21.43 20.86 19.21 17.09 37.85 34.88 54.93 54.13 8.5 9.59 17.09 19.91 25.06 30.84 0.36-6.07 0.78-12.12 1.19-18.17 1.46-21.35 3.51-43.16 0.99-64.52-1.46-12.32-3.62-24.57-5.97-36.78zm90.28-44.99c-16.29-5.33-33.13-9.08-49.93-12.31-12.95-2.49-25.96-4.51-39-6.29q1.69 11.96 3.85 23.88c1.49 8.24 3.16 16.49 4.84 24.76 28.27-5.89 55.91-14.67 80.24-30.04z"/>
		</g>
	</g>
</svg>