<svg version="1.2" xmlns="http://www.w3.org/2000/svg" viewBox="0 0 1200 1200" width="1200" height="1200">
	<style>
		.s0 { fill: #000000 } 
	</style>
	<g id="_Artboards_">
	</g>
	<g id="Background">
	</g>
	<g id="Graphic Element">
		<g id="&lt;Group&gt;">
			<path id="&lt;Compound Path&gt;" fill-rule="evenodd" class="s0" d="m697.6 548.45c-13.78 14.12-29.26 26.7-44.5 39.5q0.72 1.58 1.43 3.15 10.03 21.94 21.72 43.04c12.66 22.82 26.75 44.95 42.82 65.54 3.65 4.08 7.12 8.35 10.36 12.87 3.91 5.48-5 12.23-9.28 7.16-3.71-4.39-7.29-8.88-10.81-13.41-10.25-11.3-22.26-20.97-35.07-29.27-23.04-14.93-48.18-25.93-73.72-36.14-2.25 3.13-4.43 6.32-6.45 9.65-13.56 22.25-23.36 46.85-34.39 70.65 0.02 1.8-0.72 3.12-1.85 3.94-11.34 24-24.24 47-43.94 65.66-5.51 5.23-13.88-3.12-8.35-8.36 18.75-17.76 31.29-40.24 42.19-63.37-2.32-23.12 0.62-46.23 5.31-68.89 1.79-8.61 3.81-17.15 5.83-25.7-32.29-12.98-63.78-27.34-91.07-49.43-3.79-3.07-1.09-8.48 2.61-9.88 18.5-6.98 38.36-8.82 57.97-9.73 14.04-0.65 28.13-0.85 42.15-2.03q0.45-12.09-0.13-24.32c-1.87-38.86-8.81-79.97 4.08-117.71 1-2.95 4.08-5.12 7.26-4.13 17.35 5.39 25.87 25.14 31.66 40.71 7.1 19.08 11.48 39.13 15.65 59.02 2 9.58 3.73 19.31 5.81 28.94 32.15-14.99 61.07-35.71 90.34-55.54 3.5-2.37 9.34 0.72 8.89 5.1-2.61 24.94-19.6 45.67-36.52 62.98zm-70.86 3.69c-14.41 5.64-29.35 9.82-44.93 11.88-0.95 11.52-2.66 22.97-4.96 34.38-1.26 6.26-2.66 12.5-4.09 18.74 7.88 3.15 15.77 6.26 23.66 9.4 11.51-14.52 25.12-26.78 39.37-38.86q1.57-1.32 3.14-2.65c-3.87-8.65-7.7-17.44-10.44-26.46-0.65-2.12-1.17-4.29-1.75-6.43zm-42.9-130.77c-5.13 18.9-5.42 38.7-4.62 58.21 0.82 19.76 2.9 39.46 3.38 59.24q0.15 6.68-0.09 13.32c14.39-1.96 28.1-6.02 41.42-11.45-2.29-10.34-4.19-20.8-6.36-31.13-4.13-19.7-8.5-39.56-15.53-58.47-2.87-7.71-6.3-15.36-11.04-22.13-2.05-2.93-4.5-5.61-7.16-7.59zm-22.2 191.26c1.79-7.75 3.52-15.51 4.98-23.33 1.49-8.02 2.54-16.02 3.21-24.04-28.42 2.21-57.67 0.34-85.23 7.79 14.21 10.21 29.79 18.53 45.6 25.94 10.35 4.85 20.86 9.32 31.44 13.64zm27.52 23.75q-9.57-3.74-19.13-7.48c-5.04 21.63-9.9 43.28-11 65.33 8.87-19.89 17.93-39.76 30.13-57.85zm54.68-40.58c-12.81 11.02-25.13 22.49-35.82 35.42 10.58 4.3 21.11 8.74 31.48 13.55 15.03 6.97 29.81 14.81 43.56 24.03-7.35-11.6-14.26-23.48-20.75-35.56-6.59-12.26-12.72-24.77-18.47-37.44zm47.27-57.62c10.63-11.09 22.22-24.33 27.9-39.31-12.95 8.84-25.91 17.67-39.23 25.93-13.6 8.43-27.6 16.27-42.11 22.76 0.77 2.96 1.58 5.9 2.5 8.81 2.22 7.05 5.06 13.97 8.08 20.81 14.78-12.46 29.48-25.04 42.86-39z"/>
		</g>
	</g>
</svg>