<svg version="1.2" xmlns="http://www.w3.org/2000/svg" viewBox="0 0 1200 1200" width="1200" height="1200">
	<style>
		.s0 { fill: #000000 } 
	</style>
	<g id="_Artboards_">
	</g>
	<g id="Background">
	</g>
	<g id="Graphic Element">
		<g id="&lt;Group&gt;">
			<path id="&lt;Compound Path&gt;" fill-rule="evenodd" class="s0" d="m610.46 526.29c-10.66 9.43-21.38 18.81-31.96 28.34-17.21 15.51-33.12 32.38-43.96 53.04-6.36 12.11-11.58 24.8-18.37 36.52-3.78 18.68-8.14 37.23-13.3 55.62-2.39 8.5-15.62 4.86-13.23-3.65 2.76-9.84 5.24-19.75 7.59-29.69-5.5 0.65-10.82-6.62-5.83-11.69 4.6-4.66 8.38-9.84 11.74-15.29 2.05-10.2 4-20.42 5.71-30.68 7.09-42.37 11.45-85.09 15.98-127.78-28.01-14.23-56.23-28.04-84.61-41.5-5.94-2.81-3.26-13.62 3.46-12.78 19.78 2.47 39.59 4.76 59.47 6.26 8.92 0.68 17.95 1.25 27.03 1.61 2.72-19.73 5.88-39.42 7.16-59.32 0.67-10.5-0.22-20.06-1.28-30.45-0.9-8.95-0.35-18.04 5.96-24.99 1.92-2.1 5.95-2.74 8.32-1.07 18.69 13.18 33.15 31.02 45.59 50.04 11.59 17.72 21.31 36.57 31.19 55.31 26.35-8.16 51.92-19.26 79.9-20.15 2.73-0.09 6.21 2.18 6.62 5.03 3.13 21.83-12.05 37.3-27.83 49.97-8.67 6.97-17.02 14.25-25.24 21.67 25.66 35.41 62.7 64.5 77.33 106.82 1.96 5.68-5.18 10.82-10.07 7.75q-30.83-19.36-62.27-37.71-27.36-15.96-55.1-31.23zm39.99-36.37q-7.34 6.78-14.69 13.59-7.17 6.62-14.44 13.13c31.75 17.55 63.13 35.79 94.05 54.77-8.88-15.17-20.73-28.87-32-41.95-11.18-12.98-22.71-25.77-32.92-39.54zm-111.02-16.95q-0.01 0.06-0.02 0.12 34.8 17.8 69.1 36.54c5.87-5.25 11.76-10.47 17.55-15.82 5.49-5.08 10.95-10.19 16.43-15.27-8.04-12.33-15.14-25.25-22.07-38.25-6.61 1.79-13.3 3.32-20.11 4.37-17 2.63-34.18 3.76-51.37 3.84-2.2 0.02-4.4-0.03-6.59-0.05-1.05 8.16-2.05 16.33-2.92 24.52zm94.19-36.59c6 11.15 12.3 22.13 19.17 32.76 7.03-6.34 14.17-12.57 21.6-18.48 9.9-7.85 24.49-18.75 26.07-32.52-17.48 1.64-34.31 7.33-50.89 12.95-5.31 1.8-10.62 3.59-15.95 5.29zm-84.62-39.38c-1.5 12.68-3.23 25.33-4.91 37.99 21.29 0.25 42.65-1.02 63.22-5.51q3.29-0.72 6.55-1.56-0.3-0.57-0.6-1.15c-17.1-32.19-34.91-68.38-63.99-91.72-1.27 6.92 1.47 16.33 2.03 21.97 1.3 13.11-0.75 26.96-2.3 39.98zm-22.62 69.5q0.72-6.64 1.45-13.27 0.29-2.55 0.61-5.09c-15.15-0.54-30.28-1.67-45.38-3.17q14.28 6.95 28.48 14.03c4.96 2.48 9.9 5 14.84 7.5zm71.32 52.85q-29.74-16.16-59.84-31.63c-2.19 20.7-4.38 41.39-6.89 62.04q-2.92 24.08-6.62 48.04c0.89-1.63 1.76-3.27 2.72-4.86 11.55-19.11 27.3-35.14 43.87-49.92 8.89-7.93 17.84-15.78 26.76-23.67z"/>
		</g>
	</g>
</svg>